<?xml version="1.0" encoding="UTF-8" standalone="no"?><svg xmlns="http://www.w3.org/2000/svg" xmlns:xlink="http://www.w3.org/1999/xlink" contentScriptType="application/ecmascript" contentStyleType="text/css" height="252px" preserveAspectRatio="none" style="width:178px;height:252px;" version="1.1" viewBox="0 0 178 252" width="178px" zoomAndPan="magnify"><defs><filter height="300%" id="f1les63zv5x81u" width="300%" x="-1" y="-1"><feGaussianBlur result="blurOut" stdDeviation="2.0"/><feColorMatrix in="blurOut" result="blurOut2" type="matrix" values="0 0 0 0 0 0 0 0 0 0 0 0 0 0 0 0 0 0 .4 0"/><feOffset dx="4.0" dy="4.0" in="blurOut2" result="blurOut3"/><feBlend in="SourceGraphic" in2="blurOut3" mode="normal"/></filter></defs><g><ellipse cx="88.5" cy="20" fill="#000000" filter="url(#f1les63zv5x81u)" rx="10" ry="10" style="stroke: none; stroke-width: 1.0;"/><rect fill="#FEFECE" filter="url(#f1les63zv5x81u)" height="36.3441" rx="12.5" ry="12.5" style="stroke: #A80036; stroke-width: 1.5;" width="154" x="11.5" y="50"/><text fill="#000000" font-family="sans-serif" font-size="12" lengthAdjust="spacingAndGlyphs" textLength="134" x="21.5" y="72.8281">Stop all plugin instances</text><rect fill="#FEFECE" filter="url(#f1les63zv5x81u)" height="36.3441" rx="12.5" ry="12.5" style="stroke: #A80036; stroke-width: 1.5;" width="144" x="16.5" y="106.3441"/><text fill="#000000" font-family="sans-serif" font-size="12" lengthAdjust="spacingAndGlyphs" textLength="124" x="26.5" y="129.1722">Eject all dependencies</text><rect fill="#FEFECE" filter="url(#f1les63zv5x81u)" height="36.3441" rx="12.5" ry="12.5" style="stroke: #A80036; stroke-width: 1.5;" width="157" x="10" y="162.6882"/><text fill="#000000" font-family="sans-serif" font-size="12" lengthAdjust="spacingAndGlyphs" textLength="137" x="20" y="185.5163">Destroy plugin instances</text><ellipse cx="88.5" cy="230.0323" fill="#FFFFFF" filter="url(#f1les63zv5x81u)" rx="11" ry="11" style="stroke: #000000; stroke-width: 1.0;"/><ellipse cx="88.5" cy="230.0323" fill="#000000" rx="6" ry="6" style="stroke: #7F7F7F; stroke-width: 1.0;"/><line style="stroke: #A80036; stroke-width: 1.5;" x1="88.5" x2="88.5" y1="30" y2="50"/><polygon fill="#A80036" points="84.5,40,88.5,50,92.5,40,88.5,44" style="stroke: #A80036; stroke-width: 1.0;"/><line style="stroke: #A80036; stroke-width: 1.5;" x1="88.5" x2="88.5" y1="86.3441" y2="106.3441"/><polygon fill="#A80036" points="84.5,96.3441,88.5,106.3441,92.5,96.3441,88.5,100.3441" style="stroke: #A80036; stroke-width: 1.0;"/><line style="stroke: #A80036; stroke-width: 1.5;" x1="88.5" x2="88.5" y1="142.6882" y2="162.6882"/><polygon fill="#A80036" points="84.5,152.6882,88.5,162.6882,92.5,152.6882,88.5,156.6882" style="stroke: #A80036; stroke-width: 1.0;"/><line style="stroke: #A80036; stroke-width: 1.5;" x1="88.5" x2="88.5" y1="199.0323" y2="219.0323"/><polygon fill="#A80036" points="84.5,209.0323,88.5,219.0323,92.5,209.0323,88.5,213.0323" style="stroke: #A80036; stroke-width: 1.0;"/><!--MD5=[366c7dce7d5da99852d8277e7e7fc921]
@startuml ShutdownWorkflow
start

:Stop all plugin instances;
:Eject all dependencies;
:Destroy plugin instances;

stop

@enduml

PlantUML version 1.2020.10(Sun May 17 11:35:57 CEST 2020)
(GPL source distribution)
Java Runtime: OpenJDK Runtime Environment
JVM: OpenJDK 64-Bit Server VM
Java Version: 11.0.8+10-post-Ubuntu-0ubuntu120.04
Operating System: Linux
Default Encoding: UTF-8
Language: en
Country: US
--></g></svg>