<?xml version="1.0" encoding="UTF-8" standalone="no"?><svg xmlns="http://www.w3.org/2000/svg" xmlns:xlink="http://www.w3.org/1999/xlink" contentScriptType="application/ecmascript" contentStyleType="text/css" height="940px" preserveAspectRatio="none" style="width:384px;height:940px;" version="1.1" viewBox="0 0 384 940" width="384px" zoomAndPan="magnify"><defs><filter height="300%" id="f193pwfmddw3ot" width="300%" x="-1" y="-1"><feGaussianBlur result="blurOut" stdDeviation="2.0"/><feColorMatrix in="blurOut" result="blurOut2" type="matrix" values="0 0 0 0 0 0 0 0 0 0 0 0 0 0 0 0 0 0 .4 0"/><feOffset dx="4.0" dy="4.0" in="blurOut2" result="blurOut3"/><feBlend in="SourceGraphic" in2="blurOut3" mode="normal"/></filter></defs><g><ellipse cx="117.5" cy="20" fill="#000000" filter="url(#f193pwfmddw3ot)" rx="10" ry="10" style="stroke: none; stroke-width: 1.0;"/><rect fill="#FEFECE" filter="url(#f193pwfmddw3ot)" height="36.3441" rx="12.5" ry="12.5" style="stroke: #A80036; stroke-width: 1.5;" width="215" x="10" y="50"/><text fill="#000000" font-family="sans-serif" font-size="12" lengthAdjust="spacingAndGlyphs" textLength="195" x="20" y="72.8281">Load plugin manager configuration</text><rect fill="#FEFECE" filter="url(#f193pwfmddw3ot)" height="36.3441" rx="12.5" ry="12.5" style="stroke: #A80036; stroke-width: 1.5;" width="123" x="56" y="174.549"/><text fill="#000000" font-family="sans-serif" font-size="12" lengthAdjust="spacingAndGlyphs" textLength="103" x="66" y="197.3771">Load plugin library</text><rect fill="#FEFECE" filter="url(#f193pwfmddw3ot)" height="36.3441" rx="12.5" ry="12.5" style="stroke: #A80036; stroke-width: 1.5;" width="119" x="58" y="230.8931"/><text fill="#000000" font-family="sans-serif" font-size="12" lengthAdjust="spacingAndGlyphs" textLength="99" x="68" y="253.7212">Get plugin factory</text><rect fill="#FEFECE" filter="url(#f193pwfmddw3ot)" height="36.3441" rx="12.5" ry="12.5" style="stroke: #A80036; stroke-width: 1.5;" width="145" x="45" y="355.4421"/><text fill="#000000" font-family="sans-serif" font-size="12" lengthAdjust="spacingAndGlyphs" textLength="125" x="55" y="378.2702">Create plugin instance</text><rect fill="#FEFECE" filter="url(#f193pwfmddw3ot)" height="36.3441" rx="12.5" ry="12.5" style="stroke: #A80036; stroke-width: 1.5;" width="162" x="36.5" y="426.7771"/><text fill="#000000" font-family="sans-serif" font-size="12" lengthAdjust="spacingAndGlyphs" textLength="142" x="46.5" y="449.6052">Configure plugin instance</text><rect fill="#FEFECE" filter="url(#f193pwfmddw3ot)" height="36.3441" rx="12.5" ry="12.5" style="stroke: #A80036; stroke-width: 1.5;" width="185" x="25" y="490.6212"/><text fill="#000000" font-family="sans-serif" font-size="12" lengthAdjust="spacingAndGlyphs" textLength="165" x="35" y="513.4493">Check plugin instance version</text><rect fill="#FEFECE" filter="url(#f193pwfmddw3ot)" height="36.3441" rx="12.5" ry="12.5" style="stroke: #A80036; stroke-width: 1.5;" width="137" x="49" y="546.9654"/><text fill="#000000" font-family="sans-serif" font-size="12" lengthAdjust="spacingAndGlyphs" textLength="117" x="59" y="569.7934">Store plugin instance</text><polygon fill="#FEFECE" filter="url(#f193pwfmddw3ot)" points="117.5,311.4421,129.5,323.4421,117.5,335.4421,105.5,323.4421,117.5,311.4421" style="stroke: #A80036; stroke-width: 1.5;"/><polygon fill="#FEFECE" filter="url(#f193pwfmddw3ot)" points="45,603.3095,190,603.3095,202,615.3095,190,627.3095,45,627.3095,33,615.3095,45,603.3095" style="stroke: #A80036; stroke-width: 1.5;"/><text fill="#000000" font-family="sans-serif" font-size="11" lengthAdjust="spacingAndGlyphs" textLength="145" x="45" y="619.5774">All plugin instances loaded?</text><text fill="#000000" font-family="sans-serif" font-size="11" lengthAdjust="spacingAndGlyphs" textLength="15" x="202" y="612.0865">No</text><polygon fill="#FEFECE" filter="url(#f193pwfmddw3ot)" points="117.5,130.549,129.5,142.549,117.5,154.549,105.5,142.549,117.5,130.549" style="stroke: #A80036; stroke-width: 1.5;"/><polygon fill="#FEFECE" filter="url(#f193pwfmddw3ot)" points="68,670.5234,167,670.5234,179,682.5234,167,694.5234,68,694.5234,56,682.5234,68,670.5234" style="stroke: #A80036; stroke-width: 1.5;"/><text fill="#000000" font-family="sans-serif" font-size="11" lengthAdjust="spacingAndGlyphs" textLength="99" x="68" y="686.7914">All plugins loaded?</text><text fill="#000000" font-family="sans-serif" font-size="11" lengthAdjust="spacingAndGlyphs" textLength="15" x="179" y="679.3004">No</text><rect fill="#FEFECE" filter="url(#f193pwfmddw3ot)" height="36.3441" rx="12.5" ry="12.5" style="stroke: #A80036; stroke-width: 1.5;" width="148" x="43.5" y="738.7283"/><text fill="#000000" font-family="sans-serif" font-size="12" lengthAdjust="spacingAndGlyphs" textLength="128" x="53.5" y="761.5563">Inject all dependencies</text><rect fill="#FEFECE" filter="url(#f193pwfmddw3ot)" height="36.3441" rx="12.5" ry="12.5" style="stroke: #A80036; stroke-width: 1.5;" width="142" x="46.5" y="795.0724"/><text fill="#000000" font-family="sans-serif" font-size="12" lengthAdjust="spacingAndGlyphs" textLength="122" x="56.5" y="817.9005">Prepare startup order</text><rect fill="#FEFECE" filter="url(#f193pwfmddw3ot)" height="36.3441" rx="12.5" ry="12.5" style="stroke: #A80036; stroke-width: 1.5;" width="156" x="39.5" y="851.4165"/><text fill="#000000" font-family="sans-serif" font-size="12" lengthAdjust="spacingAndGlyphs" textLength="136" x="49.5" y="874.2446">Start all plugin instances</text><ellipse cx="117.5" cy="918.7606" fill="#FFFFFF" filter="url(#f193pwfmddw3ot)" rx="11" ry="11" style="stroke: #000000; stroke-width: 1.0;"/><ellipse cx="117.5" cy="918.7606" fill="#000000" rx="6" ry="6" style="stroke: #7F7F7F; stroke-width: 1.0;"/><line style="stroke: #A80036; stroke-width: 1.5;" x1="117.5" x2="117.5" y1="30" y2="50"/><polygon fill="#A80036" points="113.5,40,117.5,50,121.5,40,117.5,44" style="stroke: #A80036; stroke-width: 1.0;"/><line style="stroke: #A80036; stroke-width: 1.5;" x1="117.5" x2="117.5" y1="210.8931" y2="230.8931"/><polygon fill="#A80036" points="113.5,220.8931,117.5,230.8931,121.5,220.8931,117.5,224.8931" style="stroke: #A80036; stroke-width: 1.0;"/><line style="stroke: #A80036; stroke-width: 1.5;" x1="117.5" x2="117.5" y1="391.7862" y2="426.7771"/><polygon fill="#A80036" points="113.5,416.7771,117.5,426.7771,121.5,416.7771,117.5,420.7771" style="stroke: #A80036; stroke-width: 1.0;"/><line style="stroke: #A80036; stroke-width: 1.5;" x1="117.5" x2="117.5" y1="463.1212" y2="490.6212"/><polygon fill="#A80036" points="113.5,480.6212,117.5,490.6212,121.5,480.6212,117.5,484.6212" style="stroke: #A80036; stroke-width: 1.0;"/><line style="stroke: #A80036; stroke-width: 1.5;" x1="117.5" x2="117.5" y1="526.9654" y2="546.9654"/><polygon fill="#A80036" points="113.5,536.9654,117.5,546.9654,121.5,536.9654,117.5,540.9654" style="stroke: #A80036; stroke-width: 1.0;"/><line style="stroke: #A80036; stroke-width: 1.5;" x1="117.5" x2="117.5" y1="335.4421" y2="355.4421"/><polygon fill="#A80036" points="113.5,345.4421,117.5,355.4421,121.5,345.4421,117.5,349.4421" style="stroke: #A80036; stroke-width: 1.0;"/><line style="stroke: #A80036; stroke-width: 1.5;" x1="202" x2="222" y1="615.3095" y2="615.3095"/><polygon fill="#A80036" points="218,483.1212,222,473.1212,226,483.1212,222,479.1212" style="stroke: #A80036; stroke-width: 1.5;"/><line style="stroke: #A80036; stroke-width: 1.5;" x1="222" x2="222" y1="323.4421" y2="615.3095"/><line style="stroke: #A80036; stroke-width: 1.5;" x1="222" x2="129.5" y1="323.4421" y2="323.4421"/><polygon fill="#A80036" points="139.5,319.4421,129.5,323.4421,139.5,327.4421,135.5,323.4421" style="stroke: #A80036; stroke-width: 1.0;"/><line style="stroke: #A80036; stroke-width: 1.5;" x1="117.5" x2="117.5" y1="583.3095" y2="603.3095"/><polygon fill="#A80036" points="113.5,593.3095,117.5,603.3095,121.5,593.3095,117.5,597.3095" style="stroke: #A80036; stroke-width: 1.0;"/><line style="stroke: #A80036; stroke-width: 1.5;" x1="117.5" x2="117.5" y1="267.2372" y2="311.4421"/><polygon fill="#A80036" points="113.5,301.4421,117.5,311.4421,121.5,301.4421,117.5,305.4421" style="stroke: #A80036; stroke-width: 1.0;"/><text fill="#000000" font-family="sans-serif" font-size="11" lengthAdjust="spacingAndGlyphs" textLength="225" x="121.5" y="290.7191">Iterate over plugin instance configurations</text><line style="stroke: #A80036; stroke-width: 1.5;" x1="117.5" x2="117.5" y1="154.549" y2="174.549"/><polygon fill="#A80036" points="113.5,164.549,117.5,174.549,121.5,164.549,117.5,168.549" style="stroke: #A80036; stroke-width: 1.0;"/><line style="stroke: #A80036; stroke-width: 1.5;" x1="179" x2="358.5" y1="682.5234" y2="682.5234"/><polygon fill="#A80036" points="354.5,411.7862,358.5,401.7862,362.5,411.7862,358.5,407.7862" style="stroke: #A80036; stroke-width: 1.5;"/><line style="stroke: #A80036; stroke-width: 1.5;" x1="358.5" x2="358.5" y1="142.549" y2="682.5234"/><line style="stroke: #A80036; stroke-width: 1.5;" x1="358.5" x2="129.5" y1="142.549" y2="142.549"/><polygon fill="#A80036" points="139.5,138.549,129.5,142.549,139.5,146.549,135.5,142.549" style="stroke: #A80036; stroke-width: 1.0;"/><line style="stroke: #A80036; stroke-width: 1.5;" x1="117.5" x2="117.5" y1="627.3095" y2="670.5234"/><polygon fill="#A80036" points="113.5,660.5234,117.5,670.5234,121.5,660.5234,117.5,664.5234" style="stroke: #A80036; stroke-width: 1.0;"/><text fill="#000000" font-family="sans-serif" font-size="11" lengthAdjust="spacingAndGlyphs" textLength="17" x="121.5" y="650.7914">Yes</text><line style="stroke: #A80036; stroke-width: 1.5;" x1="117.5" x2="117.5" y1="86.3441" y2="130.549"/><polygon fill="#A80036" points="113.5,120.549,117.5,130.549,121.5,120.549,117.5,124.549" style="stroke: #A80036; stroke-width: 1.0;"/><text fill="#000000" font-family="sans-serif" font-size="11" lengthAdjust="spacingAndGlyphs" textLength="179" x="121.5" y="109.826">Iterate over plugin configurations</text><line style="stroke: #A80036; stroke-width: 1.5;" x1="117.5" x2="117.5" y1="694.5234" y2="738.7283"/><polygon fill="#A80036" points="113.5,728.7283,117.5,738.7283,121.5,728.7283,117.5,732.7283" style="stroke: #A80036; stroke-width: 1.0;"/><text fill="#000000" font-family="sans-serif" font-size="11" lengthAdjust="spacingAndGlyphs" textLength="17" x="121.5" y="718.0053">Yes</text><line style="stroke: #A80036; stroke-width: 1.5;" x1="117.5" x2="117.5" y1="775.0724" y2="795.0724"/><polygon fill="#A80036" points="113.5,785.0724,117.5,795.0724,121.5,785.0724,117.5,789.0724" style="stroke: #A80036; stroke-width: 1.0;"/><line style="stroke: #A80036; stroke-width: 1.5;" x1="117.5" x2="117.5" y1="831.4165" y2="851.4165"/><polygon fill="#A80036" points="113.5,841.4165,117.5,851.4165,121.5,841.4165,117.5,845.4165" style="stroke: #A80036; stroke-width: 1.0;"/><line style="stroke: #A80036; stroke-width: 1.5;" x1="117.5" x2="117.5" y1="887.7606" y2="907.7606"/><polygon fill="#A80036" points="113.5,897.7606,117.5,907.7606,121.5,897.7606,117.5,901.7606" style="stroke: #A80036; stroke-width: 1.0;"/><!--MD5=[1ba9aac2aafd1565fcda2336ad957c4c]
@startuml StartupWorkflow
start

:Load plugin manager configuration;
-> Iterate over plugin configurations;

repeat
     :Load plugin library;
     :Get plugin factory;
     -> Iterate over plugin instance configurations;

     repeat
          :Create plugin instance;
          :Configure plugin instance;
          :Check plugin instance version;
          :Store plugin instance;
     repeat while (All plugin instances loaded?) is (No)
     -> Yes;
repeat while (All plugins loaded?) is (No)
-> Yes;
:Inject all dependencies;
:Prepare startup order;
:Start all plugin instances;
stop

@enduml

PlantUML version 1.2020.10(Sun May 17 11:35:57 CEST 2020)
(GPL source distribution)
Java Runtime: OpenJDK Runtime Environment
JVM: OpenJDK 64-Bit Server VM
Java Version: 11.0.8+10-post-Ubuntu-0ubuntu120.04
Operating System: Linux
Default Encoding: UTF-8
Language: en
Country: US
--></g></svg>