<?xml version="1.0" encoding="UTF-8" standalone="no"?><svg xmlns="http://www.w3.org/2000/svg" xmlns:xlink="http://www.w3.org/1999/xlink" contentScriptType="application/ecmascript" contentStyleType="text/css" height="657px" preserveAspectRatio="none" style="width:271px;height:657px;" version="1.1" viewBox="0 0 271 657" width="271px" zoomAndPan="magnify"><defs><filter height="300%" id="fdarhzlf9ayql" width="300%" x="-1" y="-1"><feGaussianBlur result="blurOut" stdDeviation="2.0"/><feColorMatrix in="blurOut" result="blurOut2" type="matrix" values="0 0 0 0 0 0 0 0 0 0 0 0 0 0 0 0 0 0 .4 0"/><feOffset dx="4.0" dy="4.0" in="blurOut2" result="blurOut3"/><feBlend in="SourceGraphic" in2="blurOut3" mode="normal"/></filter></defs><g><!--MD5=[e26fc42ca9990c378aeb34624783f540]
class PluginManagerConfig--><rect fill="#FEFECE" filter="url(#fdarhzlf9ayql)" height="122.9094" id="PluginManagerConfig" style="stroke: #A80036; stroke-width: 1.5;" width="254" x="6" y="8"/><ellipse cx="68.25" cy="24" fill="#ADD1B2" rx="11" ry="11" style="stroke: #A80036; stroke-width: 1.0;"/><path d="M67.7188,30.9219 Q65.9688,30.9219 64.8281,30.1875 Q63.7031,29.4375 63.1406,28.0938 Q62.5938,26.7344 62.5938,24.9375 Q62.5938,22.9063 63.25,21.4531 Q63.9063,20 65.1875,19.2188 Q66.4688,18.4375 68.3438,18.4375 Q69.2344,18.4375 69.9063,18.625 Q70.5781,18.7969 71.2656,19.1406 L70.4531,21.1563 Q69.8281,20.8438 69.2813,20.7188 Q68.75,20.5938 68.2656,20.5938 Q67.0938,20.5938 66.3906,21.125 Q65.6875,21.6563 65.3906,22.6094 Q65.0938,23.5625 65.0938,24.8281 Q65.0938,26.8438 65.8125,27.8125 Q66.5313,28.7656 68.125,28.7656 Q68.7188,28.7656 69.3438,28.6094 Q69.9688,28.4531 70.7969,28.0781 L70.7969,30.2969 Q70.0625,30.6094 69.2656,30.7656 Q68.4844,30.9219 67.7188,30.9219 Z "/><text fill="#000000" font-family="sans-serif" font-size="12" lengthAdjust="spacingAndGlyphs" textLength="121" x="88.75" y="28.656">PluginManagerConfig</text><line style="stroke: #A80036; stroke-width: 1.5;" x1="7" x2="259" y1="40" y2="40"/><line style="stroke: #A80036; stroke-width: 1.5;" x1="7" x2="259" y1="48" y2="48"/><ellipse cx="17" cy="59" fill="#84BE84" rx="3" ry="3" style="stroke: #038048; stroke-width: 1.0;"/><text fill="#000000" font-family="sans-serif" font-size="11" lengthAdjust="spacingAndGlyphs" textLength="40" x="26" y="63.7589">isValid()</text><ellipse cx="17" cy="73.9819" fill="#84BE84" rx="3" ry="3" style="stroke: #038048; stroke-width: 1.0;"/><text fill="#000000" font-family="sans-serif" font-size="11" lengthAdjust="spacingAndGlyphs" textLength="80" x="26" y="78.7408">pluginConfigs()</text><ellipse cx="17" cy="88.9638" fill="#84BE84" rx="3" ry="3" style="stroke: #038048; stroke-width: 1.0;"/><text fill="#000000" font-family="sans-serif" font-size="11" lengthAdjust="spacingAndGlyphs" textLength="169" x="26" y="93.7227">setPluginConfigs(pluginConfigs)</text><ellipse cx="17" cy="103.9457" fill="#84BE84" rx="3" ry="3" style="stroke: #038048; stroke-width: 1.0;"/><text fill="#000000" font-family="sans-serif" font-size="11" lengthAdjust="spacingAndGlyphs" textLength="127" x="26" y="108.7046">pluginStartupPriorities()</text><ellipse cx="17" cy="118.9276" fill="#84BE84" rx="3" ry="3" style="stroke: #038048; stroke-width: 1.0;"/><text fill="#000000" font-family="sans-serif" font-size="11" lengthAdjust="spacingAndGlyphs" textLength="228" x="26" y="123.6865">setPluginStartupPriorities(startupPriorities)</text><!--MD5=[939d46949fc5fe98b0c8f3a09a1972b1]
class PluginConfig--><rect fill="#FEFECE" filter="url(#fdarhzlf9ayql)" height="242.7645" id="PluginConfig" style="stroke: #A80036; stroke-width: 1.5;" width="214" x="26" y="191"/><ellipse cx="93.75" cy="207" fill="#ADD1B2" rx="11" ry="11" style="stroke: #A80036; stroke-width: 1.0;"/><path d="M93.2188,213.9219 Q91.4688,213.9219 90.3281,213.1875 Q89.2031,212.4375 88.6406,211.0938 Q88.0938,209.7344 88.0938,207.9375 Q88.0938,205.9063 88.75,204.4531 Q89.4063,203 90.6875,202.2188 Q91.9688,201.4375 93.8438,201.4375 Q94.7344,201.4375 95.4063,201.625 Q96.0781,201.7969 96.7656,202.1406 L95.9531,204.1563 Q95.3281,203.8438 94.7813,203.7188 Q94.25,203.5938 93.7656,203.5938 Q92.5938,203.5938 91.8906,204.125 Q91.1875,204.6563 90.8906,205.6094 Q90.5938,206.5625 90.5938,207.8281 Q90.5938,209.8438 91.3125,210.8125 Q92.0313,211.7656 93.625,211.7656 Q94.2188,211.7656 94.8438,211.6094 Q95.4688,211.4531 96.2969,211.0781 L96.2969,213.2969 Q95.5625,213.6094 94.7656,213.7656 Q93.9844,213.9219 93.2188,213.9219 Z "/><text fill="#000000" font-family="sans-serif" font-size="12" lengthAdjust="spacingAndGlyphs" textLength="70" x="114.25" y="211.656">PluginConfig</text><line style="stroke: #A80036; stroke-width: 1.5;" x1="27" x2="239" y1="223" y2="223"/><line style="stroke: #A80036; stroke-width: 1.5;" x1="27" x2="239" y1="231" y2="231"/><ellipse cx="37" cy="242" fill="#84BE84" rx="3" ry="3" style="stroke: #038048; stroke-width: 1.0;"/><text fill="#000000" font-family="sans-serif" font-size="11" lengthAdjust="spacingAndGlyphs" textLength="40" x="46" y="246.7589">isValid()</text><ellipse cx="37" cy="256.9819" fill="#84BE84" rx="3" ry="3" style="stroke: #038048; stroke-width: 1.0;"/><text fill="#000000" font-family="sans-serif" font-size="11" lengthAdjust="spacingAndGlyphs" textLength="81" x="46" y="261.7408">isExactVersion()</text><ellipse cx="37" cy="271.9638" fill="#84BE84" rx="3" ry="3" style="stroke: #038048; stroke-width: 1.0;"/><text fill="#000000" font-family="sans-serif" font-size="11" lengthAdjust="spacingAndGlyphs" textLength="87" x="46" y="276.7227">isVersionRange()</text><ellipse cx="37" cy="286.9457" fill="#84BE84" rx="3" ry="3" style="stroke: #038048; stroke-width: 1.0;"/><text fill="#000000" font-family="sans-serif" font-size="11" lengthAdjust="spacingAndGlyphs" textLength="46" x="46" y="291.7046">filePath()</text><ellipse cx="37" cy="301.9276" fill="#84BE84" rx="3" ry="3" style="stroke: #038048; stroke-width: 1.0;"/><text fill="#000000" font-family="sans-serif" font-size="11" lengthAdjust="spacingAndGlyphs" textLength="103" x="46" y="306.6865">setFilePath(filePath)</text><ellipse cx="37" cy="316.9094" fill="#84BE84" rx="3" ry="3" style="stroke: #038048; stroke-width: 1.0;"/><text fill="#000000" font-family="sans-serif" font-size="11" lengthAdjust="spacingAndGlyphs" textLength="45" x="46" y="321.6684">version()</text><ellipse cx="37" cy="331.8913" fill="#84BE84" rx="3" ry="3" style="stroke: #038048; stroke-width: 1.0;"/><text fill="#000000" font-family="sans-serif" font-size="11" lengthAdjust="spacingAndGlyphs" textLength="100" x="46" y="336.6502">setVersion(version)</text><ellipse cx="37" cy="346.8732" fill="#84BE84" rx="3" ry="3" style="stroke: #038048; stroke-width: 1.0;"/><text fill="#000000" font-family="sans-serif" font-size="11" lengthAdjust="spacingAndGlyphs" textLength="66" x="46" y="351.6321">minVersion()</text><ellipse cx="37" cy="361.8551" fill="#84BE84" rx="3" ry="3" style="stroke: #038048; stroke-width: 1.0;"/><text fill="#000000" font-family="sans-serif" font-size="11" lengthAdjust="spacingAndGlyphs" textLength="141" x="46" y="366.614">setMinVersion(minVersion)</text><ellipse cx="37" cy="376.837" fill="#84BE84" rx="3" ry="3" style="stroke: #038048; stroke-width: 1.0;"/><text fill="#000000" font-family="sans-serif" font-size="11" lengthAdjust="spacingAndGlyphs" textLength="68" x="46" y="381.5959">maxVersion()</text><ellipse cx="37" cy="391.8189" fill="#84BE84" rx="3" ry="3" style="stroke: #038048; stroke-width: 1.0;"/><text fill="#000000" font-family="sans-serif" font-size="11" lengthAdjust="spacingAndGlyphs" textLength="145" x="46" y="396.5778">setMaxVersion(maxVersion)</text><ellipse cx="37" cy="406.8008" fill="#84BE84" rx="3" ry="3" style="stroke: #038048; stroke-width: 1.0;"/><text fill="#000000" font-family="sans-serif" font-size="11" lengthAdjust="spacingAndGlyphs" textLength="89" x="46" y="411.5597">instanceConfigs()</text><ellipse cx="37" cy="421.7827" fill="#84BE84" rx="3" ry="3" style="stroke: #038048; stroke-width: 1.0;"/><text fill="#000000" font-family="sans-serif" font-size="11" lengthAdjust="spacingAndGlyphs" textLength="188" x="46" y="426.5416">setInstanceConfigs(instanceConfigs)</text><!--MD5=[03bfe52b2328c40423158e4880215f14]
class PluginInstanceConfig--><rect fill="#FEFECE" filter="url(#fdarhzlf9ayql)" height="152.8732" id="PluginInstanceConfig" style="stroke: #A80036; stroke-width: 1.5;" width="192" x="37" y="494"/><ellipse cx="70.9" cy="510" fill="#ADD1B2" rx="11" ry="11" style="stroke: #A80036; stroke-width: 1.0;"/><path d="M70.3688,516.9219 Q68.6188,516.9219 67.4781,516.1875 Q66.3531,515.4375 65.7906,514.0938 Q65.2438,512.7344 65.2438,510.9375 Q65.2438,508.9063 65.9,507.4531 Q66.5563,506 67.8375,505.2188 Q69.1188,504.4375 70.9938,504.4375 Q71.8844,504.4375 72.5563,504.625 Q73.2281,504.7969 73.9156,505.1406 L73.1031,507.1563 Q72.4781,506.8438 71.9313,506.7188 Q71.4,506.5938 70.9156,506.5938 Q69.7438,506.5938 69.0406,507.125 Q68.3375,507.6563 68.0406,508.6094 Q67.7438,509.5625 67.7438,510.8281 Q67.7438,512.8438 68.4625,513.8125 Q69.1813,514.7656 70.775,514.7656 Q71.3688,514.7656 71.9938,514.6094 Q72.6188,514.4531 73.4469,514.0781 L73.4469,516.2969 Q72.7125,516.6094 71.9156,516.7656 Q71.1344,516.9219 70.3688,516.9219 Z "/><text fill="#000000" font-family="sans-serif" font-size="12" lengthAdjust="spacingAndGlyphs" textLength="118" x="89.1" y="514.656">PluginInstanceConfig</text><line style="stroke: #A80036; stroke-width: 1.5;" x1="38" x2="228" y1="526" y2="526"/><line style="stroke: #A80036; stroke-width: 1.5;" x1="38" x2="228" y1="534" y2="534"/><ellipse cx="48" cy="545" fill="#84BE84" rx="3" ry="3" style="stroke: #038048; stroke-width: 1.0;"/><text fill="#000000" font-family="sans-serif" font-size="11" lengthAdjust="spacingAndGlyphs" textLength="40" x="57" y="549.7589">isValid()</text><ellipse cx="48" cy="559.9819" fill="#84BE84" rx="3" ry="3" style="stroke: #038048; stroke-width: 1.0;"/><text fill="#000000" font-family="sans-serif" font-size="11" lengthAdjust="spacingAndGlyphs" textLength="35" x="57" y="564.7408">name()</text><ellipse cx="48" cy="574.9638" fill="#84BE84" rx="3" ry="3" style="stroke: #038048; stroke-width: 1.0;"/><text fill="#000000" font-family="sans-serif" font-size="11" lengthAdjust="spacingAndGlyphs" textLength="80" x="57" y="579.7227">setName(name)</text><ellipse cx="48" cy="589.9457" fill="#84BE84" rx="3" ry="3" style="stroke: #038048; stroke-width: 1.0;"/><text fill="#000000" font-family="sans-serif" font-size="11" lengthAdjust="spacingAndGlyphs" textLength="39" x="57" y="594.7046">config()</text><ellipse cx="48" cy="604.9276" fill="#84BE84" rx="3" ry="3" style="stroke: #038048; stroke-width: 1.0;"/><text fill="#000000" font-family="sans-serif" font-size="11" lengthAdjust="spacingAndGlyphs" textLength="89" x="57" y="609.6865">setConfig(config)</text><ellipse cx="48" cy="619.9094" fill="#84BE84" rx="3" ry="3" style="stroke: #038048; stroke-width: 1.0;"/><text fill="#000000" font-family="sans-serif" font-size="11" lengthAdjust="spacingAndGlyphs" textLength="78" x="57" y="624.6684">dependencies()</text><ellipse cx="48" cy="634.8913" fill="#84BE84" rx="3" ry="3" style="stroke: #038048; stroke-width: 1.0;"/><text fill="#000000" font-family="sans-serif" font-size="11" lengthAdjust="spacingAndGlyphs" textLength="166" x="57" y="639.6502">setDependencies(dependencies)</text><!--MD5=[a049bbe9e6aa1b833bbc3ca180d62d28]
reverse link PluginManagerConfig to PluginConfig--><path d="M133,144.22 C133,158.99 133,174.87 133,190.75 " fill="none" id="PluginManagerConfig&lt;-PluginConfig" style="stroke: #A80036; stroke-width: 1.0;"/><polygon fill="#FFFFFF" points="133,131,129,137,133,143,137,137,133,131" style="stroke: #A80036; stroke-width: 1.0;"/><!--MD5=[0bd9fc6390b49587bc525dce3c6009dd]
reverse link PluginConfig to PluginInstanceConfig--><path d="M133,447.38 C133,463.3 133,479.09 133,493.78 " fill="none" id="PluginConfig&lt;-PluginInstanceConfig" style="stroke: #A80036; stroke-width: 1.0;"/><polygon fill="#FFFFFF" points="133,434,129,440,133,446,137,440,133,434" style="stroke: #A80036; stroke-width: 1.0;"/><!--MD5=[3c492cc07c9463f51e49455b9554dce6]
@startuml PluginManagerConfig
PluginManagerConfig o- - PluginConfig
PluginConfig o- - PluginInstanceConfig

class PluginManagerConfig {
    +isValid()
    +pluginConfigs()
    +setPluginConfigs(pluginConfigs)
    +pluginStartupPriorities()
    +setPluginStartupPriorities(startupPriorities)
}

class PluginConfig {
    +isValid()
    +isExactVersion()
    +isVersionRange()
    +filePath()
    +setFilePath(filePath)
    +version()
    +setVersion(version)
    +minVersion()
    +setMinVersion(minVersion)
    +maxVersion()
    +setMaxVersion(maxVersion)
    +instanceConfigs()
    +setInstanceConfigs(instanceConfigs)
}

class PluginInstanceConfig {
    +isValid()
    +name()
    +setName(name)
    +config()
    +setConfig(config)
    +dependencies()
    +setDependencies(dependencies)
}
@enduml

PlantUML version 1.2020.10(Sun May 17 11:35:57 CEST 2020)
(GPL source distribution)
Java Runtime: OpenJDK Runtime Environment
JVM: OpenJDK 64-Bit Server VM
Java Version: 11.0.8+10-post-Ubuntu-0ubuntu120.04
Operating System: Linux
Default Encoding: UTF-8
Language: en
Country: US
--></g></svg>