<?xml version="1.0" encoding="UTF-8" standalone="no"?><svg xmlns="http://www.w3.org/2000/svg" xmlns:xlink="http://www.w3.org/1999/xlink" contentScriptType="application/ecmascript" contentStyleType="text/css" height="762px" preserveAspectRatio="none" style="width:546px;height:762px;" version="1.1" viewBox="0 0 546 762" width="546px" zoomAndPan="magnify"><defs><filter height="300%" id="fszz0s6ew8gf3" width="300%" x="-1" y="-1"><feGaussianBlur result="blurOut" stdDeviation="2.0"/><feColorMatrix in="blurOut" result="blurOut2" type="matrix" values="0 0 0 0 0 0 0 0 0 0 0 0 0 0 0 0 0 0 .4 0"/><feOffset dx="4.0" dy="4.0" in="blurOut2" result="blurOut3"/><feBlend in="SourceGraphic" in2="blurOut3" mode="normal"/></filter></defs><g><!--MD5=[424d903987acf9d13c51bb264b148fb5]
class IPlugin--><rect fill="#FEFECE" filter="url(#fszz0s6ew8gf3)" height="227.7827" id="IPlugin" style="stroke: #A80036; stroke-width: 1.5;" width="167" x="13" y="8"/><ellipse cx="73.25" cy="24" fill="#A9DCDF" rx="11" ry="11" style="stroke: #A80036; stroke-width: 1.0;"/><path d="M68.4219,29.75 L71.7656,17.5625 L74.9063,17.5625 L78.2813,29.75 L75.8125,29.75 L75.0781,26.7344 L71.5625,26.7344 L70.8125,29.75 L68.4219,29.75 Z M72.8281,21.7031 L72.0781,24.7031 L74.5938,24.7031 L73.875,21.7031 Q73.7344,21.125 73.6094,20.5781 Q73.4844,20.0156 73.3438,19.4375 Q73.2344,20.0156 73.0938,20.5781 Q72.9531,21.125 72.8281,21.7031 Z "/><text fill="#000000" font-family="sans-serif" font-size="12" font-style="italic" lengthAdjust="spacingAndGlyphs" textLength="38" x="93.75" y="28.656">IPlugin</text><line style="stroke: #A80036; stroke-width: 1.5;" x1="14" x2="179" y1="40" y2="40"/><line style="stroke: #A80036; stroke-width: 1.5;" x1="14" x2="179" y1="48" y2="48"/><ellipse cx="24" cy="59" fill="#84BE84" rx="3" ry="3" style="stroke: #038048; stroke-width: 1.0;"/><text fill="#000000" font-family="sans-serif" font-size="11" font-style="italic" lengthAdjust="spacingAndGlyphs" textLength="33" x="33" y="63.7589">name()</text><ellipse cx="24" cy="73.9819" fill="#84BE84" rx="3" ry="3" style="stroke: #038048; stroke-width: 1.0;"/><text fill="#000000" font-family="sans-serif" font-size="11" font-style="italic" lengthAdjust="spacingAndGlyphs" textLength="40" x="33" y="78.7408">version()</text><ellipse cx="24" cy="88.9638" fill="#84BE84" rx="3" ry="3" style="stroke: #038048; stroke-width: 1.0;"/><text fill="#000000" font-family="sans-serif" font-size="11" font-style="italic" lengthAdjust="spacingAndGlyphs" textLength="59" x="33" y="93.7227">description()</text><ellipse cx="24" cy="103.9457" fill="#84BE84" rx="3" ry="3" style="stroke: #038048; stroke-width: 1.0;"/><text fill="#000000" font-family="sans-serif" font-size="11" font-style="italic" lengthAdjust="spacingAndGlyphs" textLength="141" x="33" y="108.7046">isInterfaceExported(interface)</text><ellipse cx="24" cy="118.9276" fill="#84BE84" rx="3" ry="3" style="stroke: #038048; stroke-width: 1.0;"/><text fill="#000000" font-family="sans-serif" font-size="11" font-style="italic" lengthAdjust="spacingAndGlyphs" textLength="95" x="33" y="123.6865">exportedInterfaces()</text><ellipse cx="24" cy="133.9094" fill="#84BE84" rx="3" ry="3" style="stroke: #038048; stroke-width: 1.0;"/><text fill="#000000" font-family="sans-serif" font-size="11" font-style="italic" lengthAdjust="spacingAndGlyphs" textLength="88" x="33" y="138.6684">loadConfig(config)</text><ellipse cx="24" cy="148.8913" fill="#84BE84" rx="3" ry="3" style="stroke: #038048; stroke-width: 1.0;"/><text fill="#000000" font-family="sans-serif" font-size="11" font-style="italic" lengthAdjust="spacingAndGlyphs" textLength="118" x="33" y="153.6502">injectDependency(plugin)</text><ellipse cx="24" cy="163.8732" fill="#84BE84" rx="3" ry="3" style="stroke: #038048; stroke-width: 1.0;"/><text fill="#000000" font-family="sans-serif" font-size="11" font-style="italic" lengthAdjust="spacingAndGlyphs" textLength="92" x="33" y="168.6321">ejectDependencies()</text><ellipse cx="24" cy="178.8551" fill="#84BE84" rx="3" ry="3" style="stroke: #038048; stroke-width: 1.0;"/><text fill="#000000" font-family="sans-serif" font-size="11" font-style="italic" lengthAdjust="spacingAndGlyphs" textLength="49" x="33" y="183.614">isStarted()</text><ellipse cx="24" cy="193.837" fill="#84BE84" rx="3" ry="3" style="stroke: #038048; stroke-width: 1.0;"/><text fill="#000000" font-family="sans-serif" font-size="11" font-style="italic" lengthAdjust="spacingAndGlyphs" textLength="29" x="33" y="198.5959">start()</text><ellipse cx="24" cy="208.8189" fill="#84BE84" rx="3" ry="3" style="stroke: #038048; stroke-width: 1.0;"/><text fill="#000000" font-family="sans-serif" font-size="11" font-style="italic" lengthAdjust="spacingAndGlyphs" textLength="27" x="33" y="213.5778">stop()</text><ellipse cx="24" cy="223.8008" fill="#84BE84" rx="3" ry="3" style="stroke: #038048; stroke-width: 1.0;"/><text fill="#000000" font-family="sans-serif" font-size="11" lengthAdjust="spacingAndGlyphs" textLength="52" x="33" y="228.5597">interface()</text><!--MD5=[d65a81ff17c705555c4513b7aa66e708]
class AbstractPlugin--><rect fill="#FEFECE" filter="url(#fszz0s6ew8gf3)" height="257.7464" id="AbstractPlugin" style="stroke: #A80036; stroke-width: 1.5;" width="181" x="6" y="296"/><ellipse cx="53.25" cy="312" fill="#A9DCDF" rx="11" ry="11" style="stroke: #A80036; stroke-width: 1.0;"/><path d="M48.4219,317.75 L51.7656,305.5625 L54.9063,305.5625 L58.2813,317.75 L55.8125,317.75 L55.0781,314.7344 L51.5625,314.7344 L50.8125,317.75 L48.4219,317.75 Z M52.8281,309.7031 L52.0781,312.7031 L54.5938,312.7031 L53.875,309.7031 Q53.7344,309.125 53.6094,308.5781 Q53.4844,308.0156 53.3438,307.4375 Q53.2344,308.0156 53.0938,308.5781 Q52.9531,309.125 52.8281,309.7031 Z "/><text fill="#000000" font-family="sans-serif" font-size="12" font-style="italic" lengthAdjust="spacingAndGlyphs" textLength="78" x="73.75" y="316.656">AbstractPlugin</text><line style="stroke: #A80036; stroke-width: 1.5;" x1="7" x2="186" y1="328" y2="328"/><line style="stroke: #A80036; stroke-width: 1.5;" x1="7" x2="186" y1="336" y2="336"/><ellipse cx="17" cy="347" fill="#84BE84" rx="3" ry="3" style="stroke: #038048; stroke-width: 1.0;"/><text fill="#000000" font-family="sans-serif" font-size="11" lengthAdjust="spacingAndGlyphs" textLength="35" x="26" y="351.7589">name()</text><ellipse cx="17" cy="361.9819" fill="#84BE84" rx="3" ry="3" style="stroke: #038048; stroke-width: 1.0;"/><text fill="#000000" font-family="sans-serif" font-size="11" lengthAdjust="spacingAndGlyphs" textLength="45" x="26" y="366.7408">version()</text><ellipse cx="17" cy="376.9638" fill="#84BE84" rx="3" ry="3" style="stroke: #038048; stroke-width: 1.0;"/><text fill="#000000" font-family="sans-serif" font-size="11" lengthAdjust="spacingAndGlyphs" textLength="65" x="26" y="381.7227">description()</text><ellipse cx="17" cy="391.9457" fill="#84BE84" rx="3" ry="3" style="stroke: #038048; stroke-width: 1.0;"/><text fill="#000000" font-family="sans-serif" font-size="11" lengthAdjust="spacingAndGlyphs" textLength="155" x="26" y="396.7046">isInterfaceExported(interface)</text><ellipse cx="17" cy="406.9276" fill="#84BE84" rx="3" ry="3" style="stroke: #038048; stroke-width: 1.0;"/><text fill="#000000" font-family="sans-serif" font-size="11" lengthAdjust="spacingAndGlyphs" textLength="106" x="26" y="411.6865">exportedInterfaces()</text><ellipse cx="17" cy="421.9094" fill="#84BE84" rx="3" ry="3" style="stroke: #038048; stroke-width: 1.0;"/><text fill="#000000" font-family="sans-serif" font-size="11" lengthAdjust="spacingAndGlyphs" textLength="97" x="26" y="426.6684">loadConfig(config)</text><ellipse cx="17" cy="436.8913" fill="#84BE84" rx="3" ry="3" style="stroke: #038048; stroke-width: 1.0;"/><text fill="#000000" font-family="sans-serif" font-size="11" lengthAdjust="spacingAndGlyphs" textLength="133" x="26" y="441.6502">injectDependency(plugin)</text><ellipse cx="17" cy="451.8732" fill="#84BE84" rx="3" ry="3" style="stroke: #038048; stroke-width: 1.0;"/><text fill="#000000" font-family="sans-serif" font-size="11" lengthAdjust="spacingAndGlyphs" textLength="103" x="26" y="456.6321">ejectDependencies()</text><ellipse cx="17" cy="466.8551" fill="#84BE84" rx="3" ry="3" style="stroke: #038048; stroke-width: 1.0;"/><text fill="#000000" font-family="sans-serif" font-size="11" lengthAdjust="spacingAndGlyphs" textLength="52" x="26" y="471.614">isStarted()</text><ellipse cx="17" cy="481.837" fill="#84BE84" rx="3" ry="3" style="stroke: #038048; stroke-width: 1.0;"/><text fill="#000000" font-family="sans-serif" font-size="11" lengthAdjust="spacingAndGlyphs" textLength="30" x="26" y="486.5959">start()</text><ellipse cx="17" cy="496.8189" fill="#84BE84" rx="3" ry="3" style="stroke: #038048; stroke-width: 1.0;"/><text fill="#000000" font-family="sans-serif" font-size="11" lengthAdjust="spacingAndGlyphs" textLength="29" x="26" y="501.5778">stop()</text><ellipse cx="17" cy="511.8008" fill="#84BE84" rx="3" ry="3" style="stroke: #038048; stroke-width: 1.0;"/><text fill="#000000" font-family="sans-serif" font-size="11" lengthAdjust="spacingAndGlyphs" textLength="52" x="26" y="516.5597">interface()</text><rect fill="#F24D5C" height="6" style="stroke: #C82930; stroke-width: 1.0;" width="6" x="14" y="523.7827"/><text fill="#000000" font-family="sans-serif" font-size="11" font-style="italic" lengthAdjust="spacingAndGlyphs" textLength="42" x="26" y="531.5416">onStart()</text><rect fill="#F24D5C" height="6" style="stroke: #C82930; stroke-width: 1.0;" width="6" x="14" y="538.7645"/><text fill="#000000" font-family="sans-serif" font-size="11" font-style="italic" lengthAdjust="spacingAndGlyphs" textLength="40" x="26" y="546.5235">onStop()</text><!--MD5=[4f44448b6214d0611f4840bfc49b1a5d]
class ExamplePlugin--><rect fill="#FEFECE" filter="url(#fszz0s6ew8gf3)" height="137.8913" id="ExamplePlugin" style="stroke: #A80036; stroke-width: 1.5;" width="129" x="227" y="614"/><ellipse cx="248.75" cy="630" fill="#ADD1B2" rx="11" ry="11" style="stroke: #A80036; stroke-width: 1.0;"/><path d="M248.2188,636.9219 Q246.4688,636.9219 245.3281,636.1875 Q244.2031,635.4375 243.6406,634.0938 Q243.0938,632.7344 243.0938,630.9375 Q243.0938,628.9063 243.75,627.4531 Q244.4063,626 245.6875,625.2188 Q246.9688,624.4375 248.8438,624.4375 Q249.7344,624.4375 250.4063,624.625 Q251.0781,624.7969 251.7656,625.1406 L250.9531,627.1563 Q250.3281,626.8438 249.7813,626.7188 Q249.25,626.5938 248.7656,626.5938 Q247.5938,626.5938 246.8906,627.125 Q246.1875,627.6563 245.8906,628.6094 Q245.5938,629.5625 245.5938,630.8281 Q245.5938,632.8438 246.3125,633.8125 Q247.0313,634.7656 248.625,634.7656 Q249.2188,634.7656 249.8438,634.6094 Q250.4688,634.4531 251.2969,634.0781 L251.2969,636.2969 Q250.5625,636.6094 249.7656,636.7656 Q248.9844,636.9219 248.2188,636.9219 Z "/><text fill="#000000" font-family="sans-serif" font-size="12" lengthAdjust="spacingAndGlyphs" textLength="82" x="264.25" y="634.656">ExamplePlugin</text><line style="stroke: #A80036; stroke-width: 1.5;" x1="228" x2="355" y1="646" y2="646"/><line style="stroke: #A80036; stroke-width: 1.5;" x1="228" x2="355" y1="654" y2="654"/><ellipse cx="238" cy="665" fill="#84BE84" rx="3" ry="3" style="stroke: #038048; stroke-width: 1.0;"/><text fill="#000000" font-family="sans-serif" font-size="11" lengthAdjust="spacingAndGlyphs" textLength="99" x="247" y="669.7589">injectDependency()</text><ellipse cx="238" cy="679.9819" fill="#84BE84" rx="3" ry="3" style="stroke: #038048; stroke-width: 1.0;"/><text fill="#000000" font-family="sans-serif" font-size="11" lengthAdjust="spacingAndGlyphs" textLength="103" x="247" y="684.7408">ejectDependencies()</text><ellipse cx="238" cy="694.9638" fill="#84BE84" rx="3" ry="3" style="stroke: #038048; stroke-width: 1.0;"/><text fill="#000000" font-family="sans-serif" font-size="11" lengthAdjust="spacingAndGlyphs" textLength="98" x="247" y="699.7227">exampleMethodA()</text><ellipse cx="238" cy="709.9457" fill="#84BE84" rx="3" ry="3" style="stroke: #038048; stroke-width: 1.0;"/><text fill="#000000" font-family="sans-serif" font-size="11" lengthAdjust="spacingAndGlyphs" textLength="98" x="247" y="714.7046">exampleMethodB()</text><rect fill="#F24D5C" height="6" style="stroke: #C82930; stroke-width: 1.0;" width="6" x="235" y="721.9276"/><text fill="#000000" font-family="sans-serif" font-size="11" lengthAdjust="spacingAndGlyphs" textLength="45" x="247" y="729.6865">onStart()</text><rect fill="#F24D5C" height="6" style="stroke: #C82930; stroke-width: 1.0;" width="6" x="235" y="736.9094"/><text fill="#000000" font-family="sans-serif" font-size="11" lengthAdjust="spacingAndGlyphs" textLength="44" x="247" y="744.6684">onStop()</text><!--MD5=[de3f65bfcdf8d6c75af903f81eae2082]
class ExampleInterfaceA--><rect fill="#FEFECE" filter="url(#fszz0s6ew8gf3)" height="62.9819" id="ExampleInterfaceA" style="stroke: #A80036; stroke-width: 1.5;" width="139" x="222" y="393.5"/><ellipse cx="237" cy="409.5" fill="#ADD1B2" rx="11" ry="11" style="stroke: #A80036; stroke-width: 1.0;"/><path d="M236.4688,416.4219 Q234.7188,416.4219 233.5781,415.6875 Q232.4531,414.9375 231.8906,413.5938 Q231.3438,412.2344 231.3438,410.4375 Q231.3438,408.4063 232,406.9531 Q232.6563,405.5 233.9375,404.7188 Q235.2188,403.9375 237.0938,403.9375 Q237.9844,403.9375 238.6563,404.125 Q239.3281,404.2969 240.0156,404.6406 L239.2031,406.6563 Q238.5781,406.3438 238.0313,406.2188 Q237.5,406.0938 237.0156,406.0938 Q235.8438,406.0938 235.1406,406.625 Q234.4375,407.1563 234.1406,408.1094 Q233.8438,409.0625 233.8438,410.3281 Q233.8438,412.3438 234.5625,413.3125 Q235.2813,414.2656 236.875,414.2656 Q237.4688,414.2656 238.0938,414.1094 Q238.7188,413.9531 239.5469,413.5781 L239.5469,415.7969 Q238.8125,416.1094 238.0156,416.2656 Q237.2344,416.4219 236.4688,416.4219 Z "/><text fill="#000000" font-family="sans-serif" font-size="12" lengthAdjust="spacingAndGlyphs" textLength="107" x="251" y="414.156">ExampleInterfaceA</text><line style="stroke: #A80036; stroke-width: 1.5;" x1="223" x2="360" y1="425.5" y2="425.5"/><line style="stroke: #A80036; stroke-width: 1.5;" x1="223" x2="360" y1="433.5" y2="433.5"/><ellipse cx="233" cy="444.5" fill="#84BE84" rx="3" ry="3" style="stroke: #038048; stroke-width: 1.0;"/><text fill="#000000" font-family="sans-serif" font-size="11" font-style="italic" lengthAdjust="spacingAndGlyphs" textLength="88" x="242" y="449.2589">exampleMethodA()</text><!--MD5=[2e6ff9bdc9b809d5ef23289b282fe6c1]
class ExampleInterfaceB--><rect fill="#FEFECE" filter="url(#fszz0s6ew8gf3)" height="62.9819" id="ExampleInterfaceB" style="stroke: #A80036; stroke-width: 1.5;" width="139" x="396" y="393.5"/><ellipse cx="411" cy="409.5" fill="#ADD1B2" rx="11" ry="11" style="stroke: #A80036; stroke-width: 1.0;"/><path d="M410.4688,416.4219 Q408.7188,416.4219 407.5781,415.6875 Q406.4531,414.9375 405.8906,413.5938 Q405.3438,412.2344 405.3438,410.4375 Q405.3438,408.4063 406,406.9531 Q406.6563,405.5 407.9375,404.7188 Q409.2188,403.9375 411.0938,403.9375 Q411.9844,403.9375 412.6563,404.125 Q413.3281,404.2969 414.0156,404.6406 L413.2031,406.6563 Q412.5781,406.3438 412.0313,406.2188 Q411.5,406.0938 411.0156,406.0938 Q409.8438,406.0938 409.1406,406.625 Q408.4375,407.1563 408.1406,408.1094 Q407.8438,409.0625 407.8438,410.3281 Q407.8438,412.3438 408.5625,413.3125 Q409.2813,414.2656 410.875,414.2656 Q411.4688,414.2656 412.0938,414.1094 Q412.7188,413.9531 413.5469,413.5781 L413.5469,415.7969 Q412.8125,416.1094 412.0156,416.2656 Q411.2344,416.4219 410.4688,416.4219 Z "/><text fill="#000000" font-family="sans-serif" font-size="12" lengthAdjust="spacingAndGlyphs" textLength="107" x="425" y="414.156">ExampleInterfaceB</text><line style="stroke: #A80036; stroke-width: 1.5;" x1="397" x2="534" y1="425.5" y2="425.5"/><line style="stroke: #A80036; stroke-width: 1.5;" x1="397" x2="534" y1="433.5" y2="433.5"/><ellipse cx="407" cy="444.5" fill="#84BE84" rx="3" ry="3" style="stroke: #038048; stroke-width: 1.0;"/><text fill="#000000" font-family="sans-serif" font-size="11" font-style="italic" lengthAdjust="spacingAndGlyphs" textLength="89" x="416" y="449.2589">exampleMethodB()</text><!--MD5=[bdfb9d61ad04312c383f5c9a527caf76]
reverse link IPlugin to AbstractPlugin--><path d="M96.5,256.64 C96.5,269.67 96.5,282.87 96.5,295.84 " fill="none" id="IPlugin&lt;-AbstractPlugin" style="stroke: #A80036; stroke-width: 1.0;"/><polygon fill="none" points="89.5,256.37,96.5,236.37,103.5,256.37,89.5,256.37" style="stroke: #A80036; stroke-width: 1.0;"/><!--MD5=[6b4b5056d912f3a75734f71f70f5ccc2]
reverse link AbstractPlugin to ExamplePlugin--><path d="M199.4,561.1 C213.34,579.39 227.13,597.49 239.62,613.9 " fill="none" id="AbstractPlugin&lt;-ExamplePlugin" style="stroke: #A80036; stroke-width: 1.0;"/><polygon fill="none" points="193.7,565.16,187.15,545.01,204.84,556.68,193.7,565.16" style="stroke: #A80036; stroke-width: 1.0;"/><!--MD5=[db8792555347d4958429c5f4ed7b9e9b]
reverse link ExampleInterfaceA to ExamplePlugin--><path d="M291.5,476.67 C291.5,515.95 291.5,570.75 291.5,613.86 " fill="none" id="ExampleInterfaceA&lt;-ExamplePlugin" style="stroke: #A80036; stroke-width: 1.0;"/><polygon fill="none" points="284.5,476.63,291.5,456.63,298.5,476.63,284.5,476.63" style="stroke: #A80036; stroke-width: 1.0;"/><!--MD5=[4636283f6263d531a05775b1fcf00a3e]
reverse link ExampleInterfaceB to ExamplePlugin--><path d="M433.44,473.17 C406.61,512.64 368,569.46 337.81,613.86 " fill="none" id="ExampleInterfaceB&lt;-ExamplePlugin" style="stroke: #A80036; stroke-width: 1.0;"/><polygon fill="none" points="427.65,469.23,444.68,456.63,439.23,477.1,427.65,469.23" style="stroke: #A80036; stroke-width: 1.0;"/><!--MD5=[053b175b4072f4379122042ab360c990]
@startuml Plugin
IPlugin <|- - AbstractPlugin
AbstractPlugin <|- - ExamplePlugin
ExampleInterfaceA <|- - ExamplePlugin
ExampleInterfaceB <|- - ExamplePlugin

abstract class IPlugin {
    {abstract} +name()
    {abstract} +version()
    {abstract} +description()
    {abstract} +isInterfaceExported(interface)
    {abstract} +exportedInterfaces()
    {abstract} +loadConfig(config)
    {abstract} +injectDependency(plugin)
    {abstract} +ejectDependencies()
    {abstract} +isStarted()
    {abstract} +start()
    {abstract} +stop()
    +interface()
}

abstract class AbstractPlugin {
    +name()
    +version()
    +description()
    +isInterfaceExported(interface)
    +exportedInterfaces()
    +loadConfig(config)
    +injectDependency(plugin)
    +ejectDependencies()
    +isStarted()
    +start()
    +stop()
    +interface()
    {abstract} -onStart()
    {abstract} -onStop()
}

class ExampleInterfaceA {
    {abstract} +exampleMethodA()
}

class ExampleInterfaceB {
    {abstract} +exampleMethodB()
}

class ExamplePlugin {
    +injectDependency()
    +ejectDependencies()
    +exampleMethodA()
    +exampleMethodB()
    -onStart()
    -onStop()
}
@enduml

PlantUML version 1.2020.10(Sun May 17 11:35:57 CEST 2020)
(GPL source distribution)
Java Runtime: OpenJDK Runtime Environment
JVM: OpenJDK 64-Bit Server VM
Java Version: 11.0.8+10-post-Ubuntu-0ubuntu120.04
Operating System: Linux
Default Encoding: UTF-8
Language: en
Country: US
--></g></svg>