<?xml version="1.0" encoding="UTF-8" standalone="no"?><svg xmlns="http://www.w3.org/2000/svg" xmlns:xlink="http://www.w3.org/1999/xlink" contentScriptType="application/ecmascript" contentStyleType="text/css" height="204px" preserveAspectRatio="none" style="width:198px;height:204px;" version="1.1" viewBox="0 0 198 204" width="198px" zoomAndPan="magnify"><defs><filter height="300%" id="ftsjxkjz1838e" width="300%" x="-1" y="-1"><feGaussianBlur result="blurOut" stdDeviation="2.0"/><feColorMatrix in="blurOut" result="blurOut2" type="matrix" values="0 0 0 0 0 0 0 0 0 0 0 0 0 0 0 0 0 0 .4 0"/><feOffset dx="4.0" dy="4.0" in="blurOut2" result="blurOut3"/><feBlend in="SourceGraphic" in2="blurOut3" mode="normal"/></filter></defs><g><!--MD5=[f351a1c2494474e7ddad7db45c7f7b9c]
class IPluginFactory--><rect fill="#FEFECE" filter="url(#ftsjxkjz1838e)" height="62.9819" id="IPluginFactory" style="stroke: #A80036; stroke-width: 1.5;" width="171" x="11" y="8"/><ellipse cx="53.45" cy="24" fill="#A9DCDF" rx="11" ry="11" style="stroke: #A80036; stroke-width: 1.0;"/><path d="M48.6219,29.75 L51.9656,17.5625 L55.1063,17.5625 L58.4813,29.75 L56.0125,29.75 L55.2781,26.7344 L51.7625,26.7344 L51.0125,29.75 L48.6219,29.75 Z M53.0281,21.7031 L52.2781,24.7031 L54.7938,24.7031 L54.075,21.7031 Q53.9344,21.125 53.8094,20.5781 Q53.6844,20.0156 53.5438,19.4375 Q53.4344,20.0156 53.2938,20.5781 Q53.1531,21.125 53.0281,21.7031 Z "/><text fill="#000000" font-family="sans-serif" font-size="12" font-style="italic" lengthAdjust="spacingAndGlyphs" textLength="78" x="73.55" y="28.656">IPluginFactory</text><line style="stroke: #A80036; stroke-width: 1.5;" x1="12" x2="181" y1="40" y2="40"/><line style="stroke: #A80036; stroke-width: 1.5;" x1="12" x2="181" y1="48" y2="48"/><ellipse cx="22" cy="59" fill="#84BE84" rx="3" ry="3" style="stroke: #038048; stroke-width: 1.0;"/><text fill="#000000" font-family="sans-serif" font-size="11" font-style="italic" lengthAdjust="spacingAndGlyphs" textLength="145" x="31" y="63.7589">createInstance(instanceName)</text><!--MD5=[5c68026ea752d2e8f1e184b2d7c89ced]
class PluginFactory--><rect fill="#FEFECE" filter="url(#ftsjxkjz1838e)" height="62.9819" id="PluginFactory" style="stroke: #A80036; stroke-width: 1.5;" width="181" x="6" y="131"/><ellipse cx="54.75" cy="147" fill="#ADD1B2" rx="11" ry="11" style="stroke: #A80036; stroke-width: 1.0;"/><path d="M54.2188,153.9219 Q52.4688,153.9219 51.3281,153.1875 Q50.2031,152.4375 49.6406,151.0938 Q49.0938,149.7344 49.0938,147.9375 Q49.0938,145.9063 49.75,144.4531 Q50.4063,143 51.6875,142.2188 Q52.9688,141.4375 54.8438,141.4375 Q55.7344,141.4375 56.4063,141.625 Q57.0781,141.7969 57.7656,142.1406 L56.9531,144.1563 Q56.3281,143.8438 55.7813,143.7188 Q55.25,143.5938 54.7656,143.5938 Q53.5938,143.5938 52.8906,144.125 Q52.1875,144.6563 51.8906,145.6094 Q51.5938,146.5625 51.5938,147.8281 Q51.5938,149.8438 52.3125,150.8125 Q53.0313,151.7656 54.625,151.7656 Q55.2188,151.7656 55.8438,151.6094 Q56.4688,151.4531 57.2969,151.0781 L57.2969,153.2969 Q56.5625,153.6094 55.7656,153.7656 Q54.9844,153.9219 54.2188,153.9219 Z "/><text fill="#000000" font-family="sans-serif" font-size="12" lengthAdjust="spacingAndGlyphs" textLength="75" x="75.25" y="151.656">PluginFactory</text><line style="stroke: #A80036; stroke-width: 1.5;" x1="7" x2="186" y1="163" y2="163"/><line style="stroke: #A80036; stroke-width: 1.5;" x1="7" x2="186" y1="171" y2="171"/><ellipse cx="17" cy="182" fill="#84BE84" rx="3" ry="3" style="stroke: #038048; stroke-width: 1.0;"/><text fill="#000000" font-family="sans-serif" font-size="11" lengthAdjust="spacingAndGlyphs" textLength="155" x="26" y="186.7589">createInstance(instanceName)</text><!--MD5=[7e47374435ecacefbc77fe74e02d2f92]
reverse link IPluginFactory to PluginFactory--><path d="M96.5,91.29 C96.5,104.79 96.5,118.94 96.5,130.98 " fill="none" id="IPluginFactory&lt;-PluginFactory" style="stroke: #A80036; stroke-width: 1.0;"/><polygon fill="none" points="89.5,91.03,96.5,71.03,103.5,91.03,89.5,91.03" style="stroke: #A80036; stroke-width: 1.0;"/><!--MD5=[d53934f83987835f9737c572ccb699b5]
@startuml PluginFactory
IPluginFactory <|- - PluginFactory

abstract class IPluginFactory {
    {abstract} +createInstance(instanceName)
}

class PluginFactory {
    +createInstance(instanceName)
}
@enduml

PlantUML version 1.2020.10(Sun May 17 11:35:57 CEST 2020)
(GPL source distribution)
Java Runtime: OpenJDK Runtime Environment
JVM: OpenJDK 64-Bit Server VM
Java Version: 11.0.8+10-post-Ubuntu-0ubuntu120.04
Operating System: Linux
Default Encoding: UTF-8
Language: en
Country: US
--></g></svg>